<?xml version="1.0" encoding="utf-8"?>
<!-- Generator: Adobe Illustrator 23.0.4, SVG Export Plug-In . SVG Version: 6.00 Build 0)  -->
<svg version="1.1" id="Layer_2" xmlns="http://www.w3.org/2000/svg" xmlns:xlink="http://www.w3.org/1999/xlink" x="0px" y="0px"
	 viewBox="0 0 200 83" style="enable-background:new 0 0 200 83;" xml:space="preserve">
<style type="text/css">
	.st0{fill:#FFFFFF;}
</style>
<path class="st0" d="M25.4,34H24v27.8l-18.3-26c-0.9-1.2-2-1.8-3.4-1.8H0v33c0,2.2,0.9,3.3,2.8,3.3h1.3V42.7l18.5,25.6
	c1,1.3,2.2,2,3.7,2h1.8v-33C28.1,35.1,27.2,34,25.4,34 M157.3,47.7h-1.4v20.2c0,0-5.7,0.4-8.5-1.9c-2.8-2.3-2.8-7.6-2.8-7.6v-7.6
	c0-2-1.1-3-3.2-3H140v12c0,0-0.3,6.3,4.9,8.9c4.5,2.2,11,1.6,11,1.6c0,1.8-0.2,3.3-0.4,4.5c-0.3,1.2-0.7,2.1-1.3,2.9
	s-1.4,1.2-2.4,1.5c-1,0.3-2.2,0.5-3.7,0.5h-0.7l-0.9,2.4h1.3c2.4,0,4.5-0.2,6.1-0.6s2.9-1.1,3.9-2.1c1-1,1.6-2.3,2-3.9
	c0.4-1.6,0.6-3.6,0.6-5.9V50.7C160.3,48.7,159.3,47.7,157.3,47.7 M124.8,47.7h-5.6l0.8,2.5h4.8c4,0,6.2,2.3,6.5,6.8H126
	c-3.4,0-5.9,0.5-7.5,1.6c-1.6,1.1-2.4,2.9-2.4,5.3c0,4.4,3.1,6.6,9.3,6.6h3.7l-0.9-2.5H126c-1.9,0-3.3-0.3-4.2-0.9
	c-0.9-0.6-1.3-1.7-1.3-3.2c0-1.6,0.4-2.8,1.3-3.5c0.8-0.7,2.4-1,4.7-1h4.9v8c0,2,1,3,3.1,3h1.5V57.5C136,50.9,132.3,47.7,124.8,47.7
	 M111.6,47.9c-0.4,0.2-0.8,0.8-1.1,1.6l-5.4,16l-4.9-17.8h-2c-1.2,0-2,0.7-2.5,2l-5,15.6l-5.2-15.7c-0.4-0.8-0.7-1.3-1.1-1.5
	s-1.1-0.4-1.9-0.4h-3l8.7,22.3c0.2,0.5,0.9,0.7,2.2,0.7c1.2,0,1.9-0.2,2.1-0.7l5.2-16.2l4.9,16.2c0.1,0.5,0.8,0.7,2.1,0.7
	c1.2,0,1.9-0.2,2.2-0.7l8.4-22.3h-1.8C112.6,47.6,112,47.7,111.6,47.9 M73.3,60c0,2.4-0.5,4.3-1.6,5.8c-1,1.5-2.6,2.2-4.6,2.2h-1
	c-2,0-3.6-0.7-4.6-2.2c-1-1.5-1.5-3.4-1.5-5.8v-2c0-2.5,0.5-4.4,1.6-5.9c1-1.5,2.6-2.2,4.6-2.2h1c2,0,3.5,0.7,4.6,2.2
	c1.1,1.4,1.6,3.4,1.6,5.9L73.3,60L73.3,60z M67.1,47.6h-1c-3.3,0-5.6,0.9-7.6,2.7c-1.9,1.8-2.9,4.4-2.9,7.7v2c0,1.6,0.3,3.1,0.8,4.4
	c0.5,1.3,1.2,2.4,2.2,3.3c0.9,0.9,2.1,1.6,3.4,2.1s2.6,0.7,4.2,0.7h1c1.7,0,2.9-0.2,4.2-0.7s2.5-1.2,3.4-2.1c0.9-0.9,1.6-2,2.2-3.3
	c0.5-1.3,0.8-2.8,0.8-4.4v-2c0-3.4-1-5.9-2.9-7.7C72.8,48.5,70.5,47.6,67.1,47.6 M42.7,47.6h-0.6c-1.6,0-2.8,0.2-4.1,0.7
	c-1.3,0.5-2.4,1.2-3.2,2.1c-0.9,0.9-1.6,2-2.1,3.3S32,56.6,32,58.2v2c0,3.4,1,6,3,7.7c2,1.7,4.6,2.6,8.1,2.6h7.1L49.3,68h-6.2
	c-1,0-1.8-0.2-2.6-0.5c-0.8-0.4-1.5-0.8-2.1-1.4c-0.6-0.6-1-1.3-1.4-2.2c-0.3-0.8-0.5-1.7-0.5-2.7v-3c0-2.4,0.4-4.4,1.3-5.9
	c0.9-1.5,2.3-2.3,4.2-2.3h0.6c2,0,3.4,0.7,4.3,2c0.8,1.3,1.3,3.2,1.3,5.9h-8l-0.8,2.6H52c0.1-0.4,0.1-0.8,0.1-1.2c0-0.4,0-0.9,0-1.5
	C52.2,51,49.1,47.6,42.7,47.6"/>
<path class="st0" d="M178.9,44.8c-0.2-0.1-0.3-0.2-0.5-0.3c7.9,0.2,15.6-2.8,21.6-8.1c-7,5.3-15.7,7.6-24.4,6.4
	c-5.9-4-10.7-10.4-13.4-18.3c-3-8.1-3.8-17-2-24.6c-4.3,13.7-1.6,31.2,10.5,41.8c-2.7-0.8-5.3-1.9-7.9-3.4c-7.9-4.6-12-12.2-12-12.2
	c1.3,3.9,4.2,9.3,12.8,14.2c3.2,1.9,6.6,3.1,10,3.7c4.9,3.1,10.2,3.9,14.6,3.3c-1.3-0.1-2.6-0.3-3.9-0.5
	C182.6,46.4,180.8,45.8,178.9,44.8"/>
</svg>
